simulation
nRows=49
nColumns=15
endheader
time  TH_x TH_y TH_z SC_y  SC_z  SC_x  AC_y  AC_z  AC_x  GH_y  GH_z  GH_yy  EL_x  PS_y
0.500042  0.000000  0.000000  0.000000  -30.981814  18.219803  -20.000000  74.103584  54.498566  10.314960  -3.436313  57.250962  -9.014573  15.954947  117.673871
0.500126  0.000000  0.000000  0.000000  -30.981814  18.219803  -15.000000  75.772778  49.669617  8.201115  -3.436313  57.250962  -9.014573  15.954947  117.673871
0.500209  0.000000  0.000000  0.000000  -30.981814  18.219803  -10.000000  77.044230  44.809170  6.470966  -3.436313  57.250962  -9.014573  15.954947  117.673871
0.500293  0.000000  0.000000  0.000000  -30.981814  18.219803  -5.000000  78.029086  39.926675  5.010881  -3.436313  57.250962  -9.014573  15.954947  117.673871
0.500377  0.000000  0.000000  0.000000  -30.981814  18.219803  0.000000  78.799489  35.028310  3.745910  -3.436313  57.250962  -9.014573  15.954947  117.673871
0.500461  0.000000  0.000000  0.000000  -30.981814  18.219803  5.000000  79.403823  30.118308  2.624458  -3.436313  57.250962  -9.014573  15.954947  117.673871
0.500544  0.000000  0.000000  0.000000  -30.981814  18.219803  10.000000  79.875391  25.199687  1.609560  -3.436313  57.250962  -9.014573  15.954947  117.673871
0.500628  0.000000  0.000000  0.000000  -30.981814  18.219803  15.000000  80.237444  20.274678  0.673703  -3.436313  57.250962  -9.014573  15.954947  117.673871
0.500712  0.000000  0.000000  0.000000  -30.981814  18.219803  20.000000  80.506268  15.345007  -0.204383  -3.436313  57.250962  -9.014573  15.954947  117.673871
0.500796  0.000000  0.000000  0.000000  -30.981814  18.219803  25.000000  80.693105  10.412061  -1.041858  -3.436313  57.250962  -9.014573  15.954947  117.673871
0.500879  0.000000  0.000000  0.000000  -30.981814  18.219803  30.000000  80.805346  5.477006  -1.853173  -3.436313  57.250962  -9.014573  15.954947  117.673871
0.500963  0.000000  0.000000  0.000000  -30.981814  18.219803  35.000000  80.847274  0.540879  -2.651166  -3.436313  57.250962  -9.014573  15.954947  117.673871
0.501047  0.000000  0.000000  0.000000  -30.981814  18.219803  40.000000  80.820456  -4.395353  -3.447859  -3.436313  57.250962  -9.014573  15.954947  117.673871
0.501131  0.000000  0.000000  0.000000  -30.981814  18.219803  45.000000  80.723892  -9.330730  -4.255192  -3.436313  57.250962  -9.014573  15.954947  117.673871
0.501215  0.000000  0.000000  0.000000  -30.981814  18.219803  50.000000  80.553916  -14.264231  -5.085774  -3.436313  57.250962  -9.014573  15.954947  117.673871
0.501298  0.000000  0.000000  0.000000  -25.413109  9.336602  -20.000000  50.253911  53.984423  22.388590  -10.144452  65.549389  -32.576988  23.551074  112.945248
0.501382  0.000000  0.000000  0.000000  -25.413109  9.336602  -15.000000  54.179121  50.029498  17.412049  -10.144452  65.549389  -32.576988  23.551074  112.945248
0.501466  0.000000  0.000000  0.000000  -25.413109  9.336602  -10.000000  57.303326  45.894614  13.209091  -10.144452  65.549389  -32.576988  23.551074  112.945248
0.501550  0.000000  0.000000  0.000000  -25.413109  9.336602  -5.000000  59.803189  41.627233  9.597878  -10.144452  65.549389  -32.576988  23.551074  112.945248
0.501633  0.000000  0.000000  0.000000  -25.413109  9.336602  0.000000  61.810929  37.260994  6.440470  -10.144452  65.549389  -32.576988  23.551074  112.945248
0.501717  0.000000  0.000000  0.000000  -25.413109  9.336602  5.000000  63.424647  32.820168  3.632371  -10.144452  65.549389  -32.576988  23.551074  112.945248
0.501801  0.000000  0.000000  0.000000  -25.413109  9.336602  10.000000  64.716997  28.322663  1.093697  -10.144452  65.549389  -32.576988  23.551074  112.945248
0.501885  0.000000  0.000000  0.000000  -25.413109  9.336602  15.000000  65.741798  23.782013  -1.237588  -10.144452  65.549389  -32.576988  23.551074  112.945248
0.501968  0.000000  0.000000  0.000000  -25.413109  9.336602  20.000000  66.538801  19.208733  -3.410708  -10.144452  65.549389  -32.576988  23.551074  112.945248
0.502052  0.000000  0.000000  0.000000  -25.413109  9.336602  25.000000  67.137077  14.611239  -5.465707  -10.144452  65.549389  -32.576988  23.551074  112.945248
0.502136  0.000000  0.000000  0.000000  -25.413109  9.336602  30.000000  67.557360  9.996492  -7.436171  -10.144452  65.549389  -32.576988  23.551074  112.945248
0.502220  0.000000  0.000000  0.000000  -25.413109  9.336602  35.000000  67.813653  5.370487  -9.351305  -10.144452  65.549389  -32.576988  23.551074  112.945248
0.502303  0.000000  0.000000  0.000000  -25.413109  9.336602  40.000000  67.914246  0.738615  -11.237514  -10.144452  65.549389  -32.576988  23.551074  112.945248
0.502387  0.000000  0.000000  0.000000  -25.413109  9.336602  45.000000  67.862366  -3.894062  -13.119778  -10.144452  65.549389  -32.576988  23.551074  112.945248
0.502471  0.000000  0.000000  0.000000  -25.413109  9.336602  50.000000  67.656374  -8.522499  -15.022921  -10.144452  65.549389  -32.576988  23.551074  112.945248
0.502555  0.000000  0.000000  0.000000  -23.576149  5.650736  -20.000000  41.221517  60.913948  28.259455  14.422167  49.217930  -46.898855  15.939824  125.572203
0.502638  0.000000  0.000000  0.000000  -23.576149  5.650736  -15.000000  47.230766  57.420553  21.266643  14.422167  49.217930  -46.898855  15.939824  125.572203
0.502722  0.000000  0.000000  0.000000  -23.576149  5.650736  -10.000000  51.953569  53.609057  15.541673  14.422167  49.217930  -46.898855  15.939824  125.572203
0.502806  0.000000  0.000000  0.000000  -23.576149  5.650736  -5.000000  55.679540  49.570373  10.790624  14.422167  49.217930  -46.898855  15.939824  125.572203
0.502890  0.000000  0.000000  0.000000  -23.576149  5.650736  0.000000  58.637684  45.367314  6.779817  14.422167  49.217930  -46.898855  15.939824  125.572203
0.502973  0.000000  0.000000  0.000000  -23.576149  5.650736  5.000000  61.000289  41.043495  3.331833  14.422167  49.217930  -46.898855  15.939824  125.572203
0.503057  0.000000  0.000000  0.000000  -23.576149  5.650736  10.000000  62.894627  36.629703  0.313696  14.422167  49.217930  -46.898855  15.939824  125.572203
0.503141  0.000000  0.000000  0.000000  -23.576149  5.650736  15.000000  64.414328  32.148067  -2.374552  14.422167  49.217930  -46.898855  15.939824  125.572203
0.503225  0.000000  0.000000  0.000000  -23.576149  5.650736  20.000000  65.628326  27.614978  -4.809104  14.422167  49.217930  -46.898855  15.939824  125.572203
0.503308  0.000000  0.000000  0.000000  -23.576149  5.650736  25.000000  66.587447  23.042790  -7.048993  14.422167  49.217930  -46.898855  15.939824  125.572203
0.503392  0.000000  0.000000  0.000000  -23.576149  5.650736  30.000000  67.329059  18.441149  -9.141097  14.422167  49.217930  -46.898855  15.939824  125.572203
0.503476  0.000000  0.000000  0.000000  -23.576149  5.650736  35.000000  67.880309  13.817782  -11.123593  14.422167  49.217930  -46.898855  15.939824  125.572203
0.503560  0.000000  0.000000  0.000000  -23.576149  5.650736  40.000000  68.260416  9.179130  -13.028663  14.422167  49.217930  -46.898855  15.939824  125.572203
0.503644  0.000000  0.000000  0.000000  -23.576149  5.650736  45.000000  68.482111  4.530760  -14.884375  14.422167  49.217930  -46.898855  15.939824  125.572203
0.503727  0.000000  0.000000  0.000000  -23.576149  5.650736  50.000000  68.552630  -0.122277  -16.716324  14.422167  49.217930  -46.898855  15.939824  125.572203
0.503811  0.000000  0.000000  0.000000  -39.059539  10.638994  -20.000000  50.183880  59.793050  27.585871  2.518505  44.826127  -6.230203  31.188935  113.859648
0.503895  0.000000  0.000000  0.000000  -39.059539  10.638994  -15.000000  55.011994  55.816632  21.885249  2.518505  44.826127  -6.230203  31.188935  113.859648
0.503979  0.000000  0.000000  0.000000  -39.059539  10.638994  -10.000000  58.737581  51.626238  17.267755  2.518505  44.826127  -6.230203  31.188935  113.859648
0.504062  0.000000  0.000000  0.000000  -39.059539  10.638994  -5.000000  61.645367  47.285698  13.444586  2.518505  44.826127  -6.230203  31.188935  113.859648
